<svg height="702" width="720" xmlns="http://www.w3.org/2000/svg">
<rect height="702" fill="#555" width="720"></rect>
<text fill="#7f7" font-family="Courier New" font-size="12" xml:space="preserve">
<tspan x="10" y="26"></tspan>
<tspan x="10" y="42">[MODE_BUILD=buildApp] - 2017-10-05T15:23:09.984Z - npm-testing /home/travis/build/kaizhu256/node\</tspan>
<tspan x="10" y="58">-sandbox2</tspan>
<tspan x="10" y="74"></tspan>
<tspan x="10" y="90"></tspan>
<tspan x="10" y="106">buildApp - merged test-report from file /home/travis/build/kaizhu256/node-sandbox2/tmp/build/tes\</tspan>
<tspan x="10" y="122">t-report.json</tspan>
<tspan x="10" y="138">&gt; server listening on http-port 41785</tspan>
<tspan x="10" y="154">&gt; server listening on http-port 61049</tspan>
<tspan x="10" y="170">[node test-case 1 of 1 passed] - testCase_buildApp_default</tspan>
<tspan x="10" y="186"></tspan>
<tspan x="10" y="202">buildApp - merged test-report from file /home/travis/build/kaizhu256/node-sandbox2/tmp/build/tes\</tspan>
<tspan x="10" y="218">t-report.json</tspan>
<tspan x="10" y="234"></tspan>
<tspan x="10" y="250">-------------------------------------------------------</tspan>
<tspan x="10" y="266">| test-report - buildApidoc - node - linux v6.11.4 - 2017-10-05T15:22:15.875Z</tspan>
<tspan x="10" y="282">|   60173 ms            0 failed        1 passed      |</tspan>
<tspan x="10" y="298">-------------------------------------------------------</tspan>
<tspan x="10" y="314">| test-report - npmTest - browser - /index.default.html - Mozilla/5.0 (X11; Linux x86_64) AppleW\</tspan>
<tspan x="10" y="330">ebKit/537.36 (KHTML, like Gecko) Chrome/56.0.2924.87 Electron/1.6.14 Safari/537.36 - 2017-10-05T\</tspan>
<tspan x="10" y="346">15:21:58.283Z</tspan>
<tspan x="10" y="362">|      13 ms            0 failed        2 passed      |</tspan>
<tspan x="10" y="378">-------------------------------------------------------</tspan>
<tspan x="10" y="394">| test-report - npmTest - node - linux v6.11.4 - 2017-10-05T15:21:56.938Z</tspan>
<tspan x="10" y="410">|   16036 ms            0 failed        8 passed      |</tspan>
<tspan x="10" y="426">-------------------------------------------------------</tspan>
<tspan x="10" y="442">| test-report - npmTestPublished - browser - / - Mozilla/5.0 (X11; Linux x86_64) AppleWebKit/537\</tspan>
<tspan x="10" y="458">.36 (KHTML, like Gecko) Chrome/56.0.2924.87 Electron/1.6.14 Safari/537.36 - 2017-10-05T15:20:50.\</tspan>
<tspan x="10" y="474">681Z</tspan>
<tspan x="10" y="490">|    3959 ms            0 failed       66 passed      |</tspan>
<tspan x="10" y="506">-------------------------------------------------------</tspan>
<tspan x="10" y="522">| test-report - npmTestPublished - node - linux v6.11.4 - 2017-10-05T15:20:28.907Z</tspan>
<tspan x="10" y="538">|   35119 ms            0 failed       82 passed      |</tspan>
<tspan x="10" y="554">-------------------------------------------------------</tspan>
<tspan x="10" y="570"></tspan>
<tspan x="10" y="586">created test-report file /home/travis/build/kaizhu256/node-sandbox2/tmp/build/test-report.html</tspan>
<tspan x="10" y="602"></tspan>
<tspan x="10" y="618"></tspan>
<tspan x="10" y="634">buildApp - 0 failed tests</tspan>
<tspan x="10" y="650"></tspan>
<tspan x="10" y="666"></tspan>
<tspan x="10" y="682">[MODE_BUILD=buildApp] - 2017-10-05T15:23:18.153Z - EXIT_CODE - 0</tspan>
</text>
</svg>
