<svg height="702" width="720" xmlns="http://www.w3.org/2000/svg">
<rect height="702" fill="#555" width="720"></rect>
<text fill="#7f7" font-family="Courier New" font-size="12" xml:space="preserve">
<tspan x="10" y="26"></tspan>
<tspan x="10" y="42">[MODE_BUILD=buildApp] - 2017-09-16T16:10:58.826Z - npm-testing /home/travis/build/kaizhu256/node\</tspan>
<tspan x="10" y="58">-sandbox2</tspan>
<tspan x="10" y="74"></tspan>
<tspan x="10" y="90"></tspan>
<tspan x="10" y="106">buildApp - merged test-report from file /home/travis/build/kaizhu256/node-sandbox2/tmp/build/tes\</tspan>
<tspan x="10" y="122">t-report.json</tspan>
<tspan x="10" y="138">&gt; server listening on http-port 43935</tspan>
<tspan x="10" y="154">&gt; server listening on http-port 54744</tspan>
<tspan x="10" y="170">[node test-case 1 of 1 passed] - testCase_buildApp_default</tspan>
<tspan x="10" y="186"></tspan>
<tspan x="10" y="202">buildApp - merged test-report from file /home/travis/build/kaizhu256/node-sandbox2/tmp/build/tes\</tspan>
<tspan x="10" y="218">t-report.json</tspan>
<tspan x="10" y="234"></tspan>
<tspan x="10" y="250">-------------------------------------------------------</tspan>
<tspan x="10" y="266">| test-report - buildApidoc - node - linux v6.11.3 - 2017-09-16T16:10:03.577Z</tspan>
<tspan x="10" y="282">|   61626 ms            0 failed        1 passed      |</tspan>
<tspan x="10" y="298">-------------------------------------------------------</tspan>
<tspan x="10" y="314">| test-report - npmTest - browser - /index.default.html - Mozilla/5.0 (X11; Linux x86_64) AppleW\</tspan>
<tspan x="10" y="330">ebKit/537.36 (KHTML, like Gecko) Chrome/56.0.2924.87 Electron/1.6.11 Safari/537.36 - 2017-09-16T\</tspan>
<tspan x="10" y="346">16:09:45.401Z</tspan>
<tspan x="10" y="362">|      20 ms            0 failed        1 passed      |</tspan>
<tspan x="10" y="378">-------------------------------------------------------</tspan>
<tspan x="10" y="394">| test-report - npmTest - node - linux v6.11.3 - 2017-09-16T16:09:43.480Z</tspan>
<tspan x="10" y="410">|   16365 ms            0 failed        7 passed      |</tspan>
<tspan x="10" y="426">-------------------------------------------------------</tspan>
<tspan x="10" y="442">| test-report - npmTestPublished - browser - / - Mozilla/5.0 (X11; Linux x86_64) AppleWebKit/537\</tspan>
<tspan x="10" y="458">.36 (KHTML, like Gecko) Chrome/56.0.2924.87 Electron/1.6.11 Safari/537.36 - 2017-09-16T16:08:37.\</tspan>
<tspan x="10" y="474">052Z</tspan>
<tspan x="10" y="490">|    4109 ms            0 failed       66 passed      |</tspan>
<tspan x="10" y="506">-------------------------------------------------------</tspan>
<tspan x="10" y="522">| test-report - npmTestPublished - node - linux v6.11.3 - 2017-09-16T16:08:10.330Z</tspan>
<tspan x="10" y="538">|   38521 ms            0 failed       82 passed      |</tspan>
<tspan x="10" y="554">-------------------------------------------------------</tspan>
<tspan x="10" y="570"></tspan>
<tspan x="10" y="586">created test-report file /home/travis/build/kaizhu256/node-sandbox2/tmp/build/test-report.html</tspan>
<tspan x="10" y="602"></tspan>
<tspan x="10" y="618"></tspan>
<tspan x="10" y="634">buildApp - 0 failed tests</tspan>
<tspan x="10" y="650"></tspan>
<tspan x="10" y="666"></tspan>
<tspan x="10" y="682">[MODE_BUILD=buildApp] - 2017-09-16T16:11:07.790Z - EXIT_CODE - 0</tspan>
</text>
</svg>
