<svg height="2046" width="720" xmlns="http://www.w3.org/2000/svg">
<rect height="2046" fill="#555" width="720"></rect>
<text fill="#7f7" font-family="Courier New" font-size="12" xml:space="preserve">
<tspan x="10" y="26"></tspan>
<tspan x="10" y="42">&gt; sandbox2@0.0.35 test /home/travis/build/kaizhu256/node-sandbox2</tspan>
<tspan x="10" y="58">&gt; (set -e; export PORT=$(utility2 shServerPortRandom); utility2 test test.js)</tspan>
<tspan x="10" y="74"></tspan>
<tspan x="10" y="90"></tspan>
<tspan x="10" y="106">[MODE_BUILD=npmTest] - 2017-04-08T17:54:48Z - npm-testing /home/travis/build/kaizhu256/node-sand\</tspan>
<tspan x="10" y="122">box2</tspan>
<tspan x="10" y="138"></tspan>
<tspan x="10" y="154"></tspan>
<tspan x="10" y="170">covering $ /home/travis/.nvm/versions/node/v6.10.2/bin/node /home/travis/build/kaizhu256/node-sa\</tspan>
<tspan x="10" y="186">ndbox2/test.js</tspan>
<tspan x="10" y="202">merging file:///home/travis/build/kaizhu256/node-sandbox2/tmp/build/test-report.json to test-rep\</tspan>
<tspan x="10" y="218">ort</tspan>
<tspan x="10" y="234">&gt; server listening on http-port 36206</tspan>
<tspan x="10" y="250">created apidoc file:///home/travis/build/kaizhu256/node-sandbox2/tmp/build/apidoc.html</tspan>
<tspan x="10" y="266"></tspan>
<tspan x="10" y="282"></tspan>
<tspan x="10" y="298">browserTest - created electron entry-page /home/travis/build/kaizhu256/node-sandbox2/tmp/electro\</tspan>
<tspan x="10" y="314">n.15b4eb446680.5e1fad75be9bf.html</tspan>
<tspan x="10" y="330"></tspan>
<tspan x="10" y="346">[node test-case 1 of 6 passed] - testCase_buildLib_default</tspan>
<tspan x="10" y="362">[node test-case 2 of 6 passed] - testCase_buildReadme_default</tspan>
<tspan x="10" y="378">[node test-case 3 of 6 passed] - testCase_buildTest_default</tspan>
<tspan x="10" y="394"></tspan>
<tspan x="10" y="410">browserTest - created electron entry-page /home/travis/build/kaizhu256/node-sandbox2/tmp/electro\</tspan>
<tspan x="10" y="426">n.15b4eb4469d0.d6915819c21bd.html</tspan>
<tspan x="10" y="442"></tspan>
<tspan x="10" y="458">Xlib:  extension "RANDR" missing on display ":99.0".</tspan>
<tspan x="10" y="474">Xlib:  extension "RANDR" missing on display ":99.0".</tspan>
<tspan x="10" y="490">&gt; server listening on http-port 53349</tspan>
<tspan x="10" y="506">merging file:///home/travis/build/kaizhu256/node-sandbox2/tmp/build/test-report.json to test-rep\</tspan>
<tspan x="10" y="522">ort</tspan>
<tspan x="10" y="538">Xlib:  extension "RANDR" missing on display ":99.0".</tspan>
<tspan x="10" y="554">[5263:0408/175450:WARNING:audio_manager.cc(314)] Multiple instances of AudioManager detected</tspan>
<tspan x="10" y="570">[5263:0408/175450:WARNING:audio_manager.cc(275)] Multiple instances of AudioManager detected</tspan>
<tspan x="10" y="586">[5293:0408/175450:ERROR:sandbox_linux.cc(343)] InitializeSandbox() called with multiple threads \</tspan>
<tspan x="10" y="602">in process gpu-process. </tspan>
<tspan x="10" y="618">merging file:///home/travis/build/kaizhu256/node-sandbox2/tmp/build/test-report.json to test-rep\</tspan>
<tspan x="10" y="634">ort</tspan>
<tspan x="10" y="650">[5263:0408/175450:ERROR:browser_gpu_channel_host_factory.cc(131)] Failed to create channel.</tspan>
<tspan x="10" y="666">Xlib:  extension "RANDR" missing on display ":99.0".</tspan>
<tspan x="10" y="682">[5259:0408/175450:WARNING:audio_manager.cc(314)] Multiple instances of AudioManager detected</tspan>
<tspan x="10" y="698">[5259:0408/175450:WARNING:audio_manager.cc(275)] Multiple instances of AudioManager detected</tspan>
<tspan x="10" y="714">[5325:0408/175450:ERROR:sandbox_linux.cc(343)] InitializeSandbox() called with multiple threads \</tspan>
<tspan x="10" y="730">in process gpu-process. </tspan>
<tspan x="10" y="746">[5259:0408/175450:ERROR:browser_gpu_channel_host_factory.cc(131)] Failed to create channel.</tspan>
<tspan x="10" y="762"></tspan>
<tspan x="10" y="778">browserTest - opened url http://127.0.0.1:36206?modeTest=1</tspan>
<tspan x="10" y="794"></tspan>
<tspan x="10" y="810"></tspan>
<tspan x="10" y="826">browserTest - opened url /home/travis/build/kaizhu256/node-sandbox2/tmp/build/apidoc.html</tspan>
<tspan x="10" y="842"></tspan>
<tspan x="10" y="858">[5263:0408/175452:INFO:CONSOLE(248)] "----------|-----------|-----------|-----------|-----------\</tspan>
<tspan x="10" y="874">|</tspan>
<tspan x="10" y="890">File      |   % Stmts |% Branches |   % Funcs |   % Lines |</tspan>
<tspan x="10" y="906">----------|-----------|-----------|-----------|-----------|</tspan>
<tspan x="10" y="922">----------|-----------|-----------|-----------|-----------|</tspan>
<tspan x="10" y="938">All files |       100 |       100 |       100 |       100 |</tspan>
<tspan x="10" y="954">----------|-----------|-----------|-----------|-----------|</tspan>
<tspan x="10" y="970">", source: file:///home/travis/build/kaizhu256/node-sandbox2/tmp/electron.15b4eb4469d0.d6915819c\</tspan>
<tspan x="10" y="986">21bd.html (248)</tspan>
<tspan x="10" y="1002">[5263:0408/175452:INFO:CONSOLE(248)] "created coverage file:///tmp/build/coverage.html/index.htm\</tspan>
<tspan x="10" y="1018">l", source: file:///home/travis/build/kaizhu256/node-sandbox2/tmp/electron.15b4eb4469d0.d6915819\</tspan>
<tspan x="10" y="1034">c21bd.html (248)</tspan>
<tspan x="10" y="1050">[node test-case 4 of 6 passed] - testCase_buildApp_default</tspan>
<tspan x="10" y="1066"></tspan>
<tspan x="10" y="1082">browserTest - created screenCapture file:///home/travis/build/kaizhu256/node-sandbox2/tmp/build/\</tspan>
<tspan x="10" y="1098">screenCapture.npmTest.browser.%2F.png</tspan>
<tspan x="10" y="1114"></tspan>
<tspan x="10" y="1130">browserTest - created screenCapture file:///home/travis/build/kaizhu256/node-sandbox2/tmp/build/\</tspan>
<tspan x="10" y="1146">screenCapture.npmTest.browser.%2F.html</tspan>
<tspan x="10" y="1162"></tspan>
<tspan x="10" y="1178">browserTest - exit-code 0 - http://127.0.0.1:36206?modeTest=1</tspan>
<tspan x="10" y="1194"></tspan>
<tspan x="10" y="1210"></tspan>
<tspan x="10" y="1226">browserTest - merged coverage from /home/travis/build/kaizhu256/node-sandbox2/tmp/coverage.npmTe\</tspan>
<tspan x="10" y="1242">st.browser.%2F.json</tspan>
<tspan x="10" y="1258"></tspan>
<tspan x="10" y="1274"></tspan>
<tspan x="10" y="1290">browserTest - merging test-report from /home/travis/build/kaizhu256/node-sandbox2/tmp/test-repor\</tspan>
<tspan x="10" y="1306">t.npmTest.browser.%2F.json</tspan>
<tspan x="10" y="1322"></tspan>
<tspan x="10" y="1338">[node test-case 5 of 6 passed] - testCase_webpage_default</tspan>
<tspan x="10" y="1354"></tspan>
<tspan x="10" y="1370">browserTest - created screenCapture file:///home/travis/build/kaizhu256/node-sandbox2/tmp/build/\</tspan>
<tspan x="10" y="1386">screenCapture.npmTest.browser.%2Fhome%2Ftravis%2Fbuild%2Fkaizhu256%2Fnode-sandbox2%2Ftmp%2Fbuild\</tspan>
<tspan x="10" y="1402">%2Fapidoc.html.png</tspan>
<tspan x="10" y="1418"></tspan>
<tspan x="10" y="1434">browserTest - created screenCapture file:///home/travis/build/kaizhu256/node-sandbox2/tmp/build/\</tspan>
<tspan x="10" y="1450">screenCapture.npmTest.browser.%2Fhome%2Ftravis%2Fbuild%2Fkaizhu256%2Fnode-sandbox2%2Ftmp%2Fbuild\</tspan>
<tspan x="10" y="1466">%2Fapidoc.html.html</tspan>
<tspan x="10" y="1482"></tspan>
<tspan x="10" y="1498">browserTest - exit-code 0 - /home/travis/build/kaizhu256/node-sandbox2/tmp/build/apidoc.html</tspan>
<tspan x="10" y="1514"></tspan>
<tspan x="10" y="1530">[node test-case 6 of 6 passed] - testCase_buildApidoc_default</tspan>
<tspan x="10" y="1546">----------------------|-----------|-----------|-----------|-----------|</tspan>
<tspan x="10" y="1562">File                  |   % Stmts |% Branches |   % Funcs |   % Lines |</tspan>
<tspan x="10" y="1578">----------------------|-----------|-----------|-----------|-----------|</tspan>
<tspan x="10" y="1594">   node-sandbox2/     |       100 |       100 |       100 |       100 |</tspan>
<tspan x="10" y="1610">      example.js      |       100 |       100 |       100 |       100 |</tspan>
<tspan x="10" y="1626">      lib.sandbox2.js |       100 |       100 |       100 |       100 |</tspan>
<tspan x="10" y="1642">      test.js         |       100 |       100 |       100 |       100 |</tspan>
<tspan x="10" y="1658">----------------------|-----------|-----------|-----------|-----------|</tspan>
<tspan x="10" y="1674">All files             |       100 |       100 |       100 |       100 |</tspan>
<tspan x="10" y="1690">----------------------|-----------|-----------|-----------|-----------|</tspan>
<tspan x="10" y="1706"></tspan>
<tspan x="10" y="1722">created coverage file:///home/travis/build/kaizhu256/node-sandbox2/tmp/build/coverage.html/index\</tspan>
<tspan x="10" y="1738">.html</tspan>
<tspan x="10" y="1754">merging file:///home/travis/build/kaizhu256/node-sandbox2/tmp/build/test-report.json to test-rep\</tspan>
<tspan x="10" y="1770">ort</tspan>
<tspan x="10" y="1786"></tspan>
<tspan x="10" y="1802">-------------------------------------------------------</tspan>
<tspan x="10" y="1818">| test-report - npmTest - node - linux v6.10.2 - 2017-04-08T17:54:48.727Z</tspan>
<tspan x="10" y="1834">|   17008 ms            0 failed        6 passed      |</tspan>
<tspan x="10" y="1850">-------------------------------------------------------</tspan>
<tspan x="10" y="1866">| test-report - npmTestPublished - node - linux v6.10.2 - 2017-04-08T17:54:28.838Z</tspan>
<tspan x="10" y="1882">|   16987 ms            0 failed        6 passed      |</tspan>
<tspan x="10" y="1898">-------------------------------------------------------</tspan>
<tspan x="10" y="1914"></tspan>
<tspan x="10" y="1930">created test-report file:///home/travis/build/kaizhu256/node-sandbox2/tmp/build/test-report.html</tspan>
<tspan x="10" y="1946"></tspan>
<tspan x="10" y="1962"></tspan>
<tspan x="10" y="1978">npmTest - 0 failed tests</tspan>
<tspan x="10" y="1994"></tspan>
<tspan x="10" y="2010"></tspan>
<tspan x="10" y="2026">[MODE_BUILD=npmTest] - 2017-04-08T17:55:07Z - EXIT_CODE - 0</tspan>
</text>
</svg>
